<?xml version="1.0" encoding="UTF-8"?>
<svg xmlns="http://www.w3.org/2000/svg" version="1.1" viewBox="0 0 684.3 160.1">
  <defs>
    <style>
      .cls-1 {
        fill: #fff;
      }
    </style>
  </defs>
  <!-- Generator: Adobe Illustrator 28.7.1, SVG Export Plug-In . SVG Version: 1.2.0 Build 142)  -->
  <g>
    <g id="Layer_1">
      <g>
        <path class="cls-1" d="M15.7,122.6L7,48.6h11.7l5.4,58h.4l27.9-54.7h5.2l11.9,54.8h.4l25.7-58.2h12.7l-34.3,73.9h-10.9l-10.5-47.9h-.6l-25.4,47.9h-10.9Z"/>
        <path class="cls-1" d="M138.6,123.7c-6,0-11.3-1.3-15.9-4-4.6-2.7-8.1-6.4-10.6-11.2-2.5-4.8-3.8-10.3-3.8-16.6s.9-11.3,2.8-16.6c1.9-5.3,4.5-10.1,7.9-14.2,3.4-4.2,7.4-7.5,12.1-9.9,4.6-2.4,9.7-3.7,15.2-3.7s10.8,1.3,14.9,3.9c4.1,2.6,7.2,6.1,9.3,10.5,2.1,4.3,3.2,9.1,3.2,14.3s-.1,3.1-.3,4.9c-.2,1.8-.5,3.5-.9,5.1-.4,1.7-.8,3-1.4,4.2h-54.5l1.7-9.8h43.9c.2-.9.4-1.8.5-2.6,0-.9.1-1.7.1-2.5,0-4.7-1.5-8.8-4.5-12.1-3-3.3-7.1-5-12.3-5s-7.5.9-10.7,2.8c-3.2,1.9-6,4.4-8.4,7.6-2.3,3.2-4.2,6.7-5.4,10.6-1.3,3.9-1.9,7.9-1.9,12,0,6.3,1.7,11.5,5.2,15.5,3.5,4,8.3,6,14.5,6s7-.7,10.3-2c3.3-1.3,6.2-3,8.8-5.1l3.9,10.5c-3.2,2.1-6.8,3.9-10.8,5.4-4,1.4-8.2,2.2-12.8,2.2Z"/>
        <path class="cls-1" d="M180.5,122.6l21.6-107.4h12.3l-8.6,42.6h1.3l-3.9,6.3-8.2,40,2.2,6.4h-2.7l-2.4,12.1h-11.6ZM217.6,123.7c-5.2,0-9.7-1.2-13.6-3.6-3.9-2.4-6.9-5.8-9.1-10.2-2.2-4.4-3.2-9.7-3.2-15.8s.9-11.3,2.8-16.8c1.8-5.5,4.5-10.5,7.8-15,3.4-4.5,7.4-8.1,12-10.8,4.6-2.7,9.6-4,15.1-4s9.6,1.2,13.5,3.6c3.9,2.4,7,5.9,9.3,10.5,2.3,4.6,3.4,10,3.4,16.5s-.9,11.3-2.8,16.7c-1.8,5.4-4.5,10.3-7.8,14.6-3.4,4.3-7.4,7.8-12,10.4-4.6,2.6-9.7,3.9-15.3,3.9ZM216.9,112.5c4.1,0,7.8-1,11-3,3.3-2,6-4.6,8.3-8,2.3-3.3,4.1-7,5.3-11.1,1.2-4,1.8-8.1,1.8-12.2,0-6.2-1.4-11-4.2-14.5-2.8-3.5-6.8-5.2-12.2-5.2s-7.8,1-11.2,2.9c-3.4,1.9-6.3,4.5-8.8,7.7-2.5,3.2-4.4,6.8-5.8,10.8-1.3,4-2,8-2,12.1,0,6.5,1.6,11.5,4.9,15.1,3.3,3.6,7.6,5.4,12.9,5.4Z"/>
        <path class="cls-1" d="M262,122.6l15.1-75.1h21.3l-1.9,9.1h1.7l-4.7,5.4c.9-2.3,2.5-4.6,4.8-7,2.3-2.4,5-4.4,8.4-6.1,3.3-1.6,7-2.4,11.1-2.4s4.9.3,6.8,1c1.9.7,3.1,1.4,3.8,2.2l-12,19.6c-.7-.5-1.6-.8-2.8-1.2-1.2-.3-2.4-.5-3.5-.5-2.4,0-4.9.7-7.5,2-2.6,1.3-4.8,3.3-6.8,5.9-2,2.6-3.4,5.7-4.1,9.3l-7.6,37.7h-22Z"/>
        <path class="cls-1" d="M354.5,123.7c-6.4,0-12-1.5-16.7-4.4-4.7-2.9-8.4-6.9-11-12-2.6-5.1-3.9-10.9-3.9-17.4s1-11.3,3-16.5c2-5.2,4.8-9.8,8.5-13.9,3.7-4.1,8-7.3,12.9-9.6,5-2.3,10.4-3.5,16.3-3.5s12.1,1.4,17,4.3c4.8,2.9,8.6,6.8,11.2,11.8,2.7,5,4,10.8,4,17.3s-1,11.3-3.1,16.5c-2.1,5.3-5,9.9-8.7,14-3.7,4.1-8.1,7.3-13.1,9.7-5,2.4-10.5,3.6-16.4,3.6ZM355.9,105.1c2.9,0,5.6-.7,7.9-2.2,2.3-1.5,4.3-3.4,5.9-5.9,1.6-2.4,2.9-5.1,3.7-8.1.8-3,1.3-6,1.3-8.9s-.5-5.7-1.4-7.9c-.9-2.3-2.2-4-4-5.2-1.8-1.2-4-1.8-6.6-1.8s-5.5.7-7.8,2.2-4.3,3.4-5.9,5.9c-1.6,2.4-2.8,5.1-3.7,8.1-.8,3-1.3,5.9-1.3,8.9s.5,5.7,1.4,8c.9,2.3,2.2,4,4,5.2s3.9,1.8,6.5,1.8Z"/>
        <path class="cls-1" d="M438,123.4c-6.2,0-11.9-1.3-17-3.9-5.1-2.6-9.2-6.4-12.2-11.4-3-5-4.5-11.1-4.5-18.2s1-11.5,3-16.7c2-5.2,4.9-9.8,8.7-13.8,3.7-4,8.2-7.2,13.3-9.5,5.1-2.3,10.7-3.5,16.8-3.5s10.2.8,14.3,2.5c4,1.7,7,3.3,9,5l-11,16.5c-1.4-1.5-3.4-2.7-6-3.7-2.6-1-5.1-1.4-7.5-1.4s-5.4.7-7.8,2.1c-2.4,1.4-4.4,3.2-6.1,5.5-1.7,2.3-3,4.8-3.9,7.6s-1.4,5.7-1.4,8.6.5,5.7,1.6,7.9,2.6,3.9,4.7,5.1c2,1.2,4.5,1.8,7.5,1.8s5.4-.5,8.1-1.5c2.6-1,4.9-2.2,6.9-3.7l4.7,19c-2.6,1.8-5.8,3.2-9.6,4.2-3.8,1-7.6,1.5-11.4,1.5Z"/>
        <path class="cls-1" d="M469.2,122.6l21.4-107.4h22l-12.5,62.7h6.8l-6.6,2.7,28.5-33.1h26.4l-39.3,42.6-1.3-12.1,26.6,44.6h-23.1l-20.6-36.2,6.9,4.7h-7.1l-6.3,31.5h-22Z"/>
        <path class="cls-1" d="M582.9,123.7c-7.4,0-13.7-1.5-18.8-4.4-5.2-3-9.1-7-11.8-12.1-2.7-5.1-4-10.9-4-17.2s1-11.1,3-16.4,4.8-9.9,8.4-14c3.6-4.1,7.8-7.3,12.7-9.7,4.9-2.4,10.2-3.6,15.9-3.6s11,1.2,15.6,3.7c4.6,2.5,8.2,5.9,10.9,10.3,2.7,4.4,4,9.4,4,15s-.2,3.7-.5,5.8c-.3,2.1-.7,4.2-1.3,6.1-.5,2-1.1,3.6-1.8,4.9h-51.5l2.7-13.8h32.5c.1-.6.2-1.1.3-1.7s0-1.1,0-1.5c0-3.3-1-6-3.1-8.1-2.1-2.1-5-3.2-8.9-3.2s-5.9.7-8.4,2.2c-2.5,1.4-4.7,3.4-6.5,5.8-1.8,2.4-3.2,5-4.1,8-1,2.9-1.4,5.8-1.4,8.8,0,5.3,1.5,9.5,4.6,12.7,3,3.2,7.1,4.8,12.2,4.8s6-.5,9-1.5c3-1,5.3-2.1,7-3.4l7,16.9c-3.5,1.9-7.3,3.3-11.5,4.2-4.2,1-8.3,1.4-12.2,1.4Z"/>
        <path class="cls-1" d="M626.1,65.7l3.7-18.2h50.1l-3.6,18.2h-50.2ZM654.1,123.7c-6.3,0-11.3-1.2-14.9-3.6-3.6-2.4-6-5.5-7.2-9.4-1.2-3.9-1.4-8-.5-12.4l14.4-72.3h21.8l-13.8,70.3c-.5,2.3-.4,4.2.1,5.7.6,1.5,1.9,2.3,4,2.3s2.6-.2,3.7-.7c1.1-.5,1.9-.9,2.3-1.2l7.2,17.4c-1.8,1-4.3,1.9-7.5,2.7-3.2.8-6.5,1.2-9.7,1.2Z"/>
      </g>
    </g>
  </g>
</svg>